<mxfile host="app.diagrams.net" agent="Mozilla/5.0 (Windows NT 10.0; Win64; x64) AppleWebKit/537.36 (KHTML, like Gecko) Chrome/132.0.0.0 Safari/537.36" version="26.0.10">
  <diagram name="PÃ¡gina-1" id="I--uYjoeAKg2iHmLg4aw">
    <mxGraphModel dx="1434" dy="739" grid="1" gridSize="10" guides="1" tooltips="1" connect="1" arrows="1" fold="1" page="1" pageScale="1" pageWidth="827" pageHeight="1169" math="0" shadow="0">
      <root>
        <mxCell id="0" />
        <mxCell id="1" parent="0" />
        <mxCell id="kIFRUREvjJaYd9ezVtCr-8" style="edgeStyle=orthogonalEdgeStyle;rounded=0;orthogonalLoop=1;jettySize=auto;html=1;" edge="1" parent="1" source="kIFRUREvjJaYd9ezVtCr-1" target="kIFRUREvjJaYd9ezVtCr-6">
          <mxGeometry relative="1" as="geometry" />
        </mxCell>
        <mxCell id="kIFRUREvjJaYd9ezVtCr-1" value="Communication Hub" style="rounded=0;whiteSpace=wrap;html=1;fillColor=#dae8fc;strokeColor=#6c8ebf;" vertex="1" parent="1">
          <mxGeometry x="350" y="280" width="120" height="60" as="geometry" />
        </mxCell>
        <mxCell id="kIFRUREvjJaYd9ezVtCr-7" style="edgeStyle=orthogonalEdgeStyle;rounded=0;orthogonalLoop=1;jettySize=auto;html=1;" edge="1" parent="1" source="kIFRUREvjJaYd9ezVtCr-2" target="kIFRUREvjJaYd9ezVtCr-6">
          <mxGeometry relative="1" as="geometry" />
        </mxCell>
        <mxCell id="kIFRUREvjJaYd9ezVtCr-2" value="Administrador Plantillas" style="rounded=0;whiteSpace=wrap;html=1;fillColor=#fff2cc;strokeColor=#d6b656;" vertex="1" parent="1">
          <mxGeometry x="350" y="405" width="120" height="60" as="geometry" />
        </mxCell>
        <mxCell id="kIFRUREvjJaYd9ezVtCr-13" style="edgeStyle=orthogonalEdgeStyle;rounded=0;orthogonalLoop=1;jettySize=auto;html=1;entryX=0;entryY=0.5;entryDx=0;entryDy=0;" edge="1" parent="1" source="kIFRUREvjJaYd9ezVtCr-4" target="kIFRUREvjJaYd9ezVtCr-1">
          <mxGeometry relative="1" as="geometry" />
        </mxCell>
        <mxCell id="kIFRUREvjJaYd9ezVtCr-14" style="edgeStyle=orthogonalEdgeStyle;rounded=0;orthogonalLoop=1;jettySize=auto;html=1;entryX=0;entryY=0.5;entryDx=0;entryDy=0;" edge="1" parent="1" source="kIFRUREvjJaYd9ezVtCr-4" target="kIFRUREvjJaYd9ezVtCr-2">
          <mxGeometry relative="1" as="geometry" />
        </mxCell>
        <mxCell id="kIFRUREvjJaYd9ezVtCr-18" style="edgeStyle=orthogonalEdgeStyle;rounded=0;orthogonalLoop=1;jettySize=auto;html=1;entryX=0;entryY=0.5;entryDx=0;entryDy=0;dashed=1;" edge="1" parent="1" source="kIFRUREvjJaYd9ezVtCr-4" target="kIFRUREvjJaYd9ezVtCr-17">
          <mxGeometry relative="1" as="geometry" />
        </mxCell>
        <mxCell id="kIFRUREvjJaYd9ezVtCr-4" value="API Manager" style="shape=image;verticalLabelPosition=bottom;labelBackgroundColor=default;verticalAlign=top;aspect=fixed;imageAspect=0;image=https://wso2.cachefly.net/wso2/sites/images/brand/wso2-logo.png;" vertex="1" parent="1">
          <mxGeometry x="200" y="350" width="91.49" height="50" as="geometry" />
        </mxCell>
        <mxCell id="kIFRUREvjJaYd9ezVtCr-6" value="BD" style="dashed=0;outlineConnect=0;html=1;align=center;labelPosition=center;verticalLabelPosition=bottom;verticalAlign=top;shape=mxgraph.webicons.mongodb;gradientColor=#DFDEDE" vertex="1" parent="1">
          <mxGeometry x="580" y="330" width="102.4" height="102.4" as="geometry" />
        </mxCell>
        <mxCell id="kIFRUREvjJaYd9ezVtCr-16" value="" style="edgeStyle=orthogonalEdgeStyle;rounded=0;orthogonalLoop=1;jettySize=auto;html=1;" edge="1" parent="1" source="kIFRUREvjJaYd9ezVtCr-15" target="kIFRUREvjJaYd9ezVtCr-4">
          <mxGeometry relative="1" as="geometry" />
        </mxCell>
        <mxCell id="kIFRUREvjJaYd9ezVtCr-15" value="Live Marketing" style="rounded=0;whiteSpace=wrap;html=1;fillColor=#dae8fc;strokeColor=#6c8ebf;" vertex="1" parent="1">
          <mxGeometry x="185.74" y="150" width="120" height="60" as="geometry" />
        </mxCell>
        <mxCell id="kIFRUREvjJaYd9ezVtCr-17" value="&lt;h1 style=&quot;margin-top: 0px;&quot;&gt;API&lt;/h1&gt;&lt;div&gt;Create&lt;/div&gt;&lt;div&gt;Read&lt;/div&gt;&lt;div&gt;Update&lt;/div&gt;&lt;div&gt;Delete&lt;/div&gt;" style="text;html=1;whiteSpace=wrap;overflow=hidden;rounded=0;" vertex="1" parent="1">
          <mxGeometry x="270" y="500" width="180" height="120" as="geometry" />
        </mxCell>
        <mxCell id="kIFRUREvjJaYd9ezVtCr-20" style="edgeStyle=orthogonalEdgeStyle;rounded=0;orthogonalLoop=1;jettySize=auto;html=1;entryX=0;entryY=0.5;entryDx=0;entryDy=0;" edge="1" parent="1" source="kIFRUREvjJaYd9ezVtCr-19" target="kIFRUREvjJaYd9ezVtCr-4">
          <mxGeometry relative="1" as="geometry" />
        </mxCell>
        <mxCell id="kIFRUREvjJaYd9ezVtCr-19" value="" style="verticalLabelPosition=bottom;html=1;verticalAlign=top;align=center;strokeColor=none;fillColor=#00BEF2;shape=mxgraph.azure.user;" vertex="1" parent="1">
          <mxGeometry x="80" y="350" width="47.5" height="50" as="geometry" />
        </mxCell>
      </root>
    </mxGraphModel>
  </diagram>
</mxfile>
